<svg xmlns="http://www.w3.org/2000/svg" viewBox="0 0 100 100" preserveAspectRatio="xMidYMid" width="200" height="200" style="shape-rendering: auto; display: block; background: transparent;" xmlns:xlink="http://www.w3.org/1999/xlink"><g><g transform="rotate(0 50 50)">
  <rect fill="#066813" height="6" width="1" ry="0.24" rx="0.24" y="14" x="49.5">
    <animate repeatCount="indefinite" begin="-2.549342105263158s" dur="2.6315789473684212s" keyTimes="0;1" values="1;0" attributeName="opacity"></animate>
  </rect>
</g><g transform="rotate(11.25 50 50)">
  <rect fill="#066813" height="6" width="1" ry="0.24" rx="0.24" y="14" x="49.5">
    <animate repeatCount="indefinite" begin="-2.4671052631578947s" dur="2.6315789473684212s" keyTimes="0;1" values="1;0" attributeName="opacity"></animate>
  </rect>
</g><g transform="rotate(22.5 50 50)">
  <rect fill="#066813" height="6" width="1" ry="0.24" rx="0.24" y="14" x="49.5">
    <animate repeatCount="indefinite" begin="-2.3848684210526314s" dur="2.6315789473684212s" keyTimes="0;1" values="1;0" attributeName="opacity"></animate>
  </rect>
</g><g transform="rotate(33.75 50 50)">
  <rect fill="#066813" height="6" width="1" ry="0.24" rx="0.24" y="14" x="49.5">
    <animate repeatCount="indefinite" begin="-2.3026315789473686s" dur="2.6315789473684212s" keyTimes="0;1" values="1;0" attributeName="opacity"></animate>
  </rect>
</g><g transform="rotate(45 50 50)">
  <rect fill="#066813" height="6" width="1" ry="0.24" rx="0.24" y="14" x="49.5">
    <animate repeatCount="indefinite" begin="-2.2203947368421053s" dur="2.6315789473684212s" keyTimes="0;1" values="1;0" attributeName="opacity"></animate>
  </rect>
</g><g transform="rotate(56.25 50 50)">
  <rect fill="#066813" height="6" width="1" ry="0.24" rx="0.24" y="14" x="49.5">
    <animate repeatCount="indefinite" begin="-2.138157894736842s" dur="2.6315789473684212s" keyTimes="0;1" values="1;0" attributeName="opacity"></animate>
  </rect>
</g><g transform="rotate(67.5 50 50)">
  <rect fill="#066813" height="6" width="1" ry="0.24" rx="0.24" y="14" x="49.5">
    <animate repeatCount="indefinite" begin="-2.0559210526315788s" dur="2.6315789473684212s" keyTimes="0;1" values="1;0" attributeName="opacity"></animate>
  </rect>
</g><g transform="rotate(78.75 50 50)">
  <rect fill="#066813" height="6" width="1" ry="0.24" rx="0.24" y="14" x="49.5">
    <animate repeatCount="indefinite" begin="-1.9736842105263157s" dur="2.6315789473684212s" keyTimes="0;1" values="1;0" attributeName="opacity"></animate>
  </rect>
</g><g transform="rotate(90 50 50)">
  <rect fill="#066813" height="6" width="1" ry="0.24" rx="0.24" y="14" x="49.5">
    <animate repeatCount="indefinite" begin="-1.8914473684210527s" dur="2.6315789473684212s" keyTimes="0;1" values="1;0" attributeName="opacity"></animate>
  </rect>
</g><g transform="rotate(101.25 50 50)">
  <rect fill="#066813" height="6" width="1" ry="0.24" rx="0.24" y="14" x="49.5">
    <animate repeatCount="indefinite" begin="-1.8092105263157894s" dur="2.6315789473684212s" keyTimes="0;1" values="1;0" attributeName="opacity"></animate>
  </rect>
</g><g transform="rotate(112.5 50 50)">
  <rect fill="#066813" height="6" width="1" ry="0.24" rx="0.24" y="14" x="49.5">
    <animate repeatCount="indefinite" begin="-1.7269736842105263s" dur="2.6315789473684212s" keyTimes="0;1" values="1;0" attributeName="opacity"></animate>
  </rect>
</g><g transform="rotate(123.75 50 50)">
  <rect fill="#066813" height="6" width="1" ry="0.24" rx="0.24" y="14" x="49.5">
    <animate repeatCount="indefinite" begin="-1.644736842105263s" dur="2.6315789473684212s" keyTimes="0;1" values="1;0" attributeName="opacity"></animate>
  </rect>
</g><g transform="rotate(135 50 50)">
  <rect fill="#066813" height="6" width="1" ry="0.24" rx="0.24" y="14" x="49.5">
    <animate repeatCount="indefinite" begin="-1.5625s" dur="2.6315789473684212s" keyTimes="0;1" values="1;0" attributeName="opacity"></animate>
  </rect>
</g><g transform="rotate(146.25 50 50)">
  <rect fill="#066813" height="6" width="1" ry="0.24" rx="0.24" y="14" x="49.5">
    <animate repeatCount="indefinite" begin="-1.4802631578947367s" dur="2.6315789473684212s" keyTimes="0;1" values="1;0" attributeName="opacity"></animate>
  </rect>
</g><g transform="rotate(157.5 50 50)">
  <rect fill="#066813" height="6" width="1" ry="0.24" rx="0.24" y="14" x="49.5">
    <animate repeatCount="indefinite" begin="-1.3980263157894737s" dur="2.6315789473684212s" keyTimes="0;1" values="1;0" attributeName="opacity"></animate>
  </rect>
</g><g transform="rotate(168.75 50 50)">
  <rect fill="#066813" height="6" width="1" ry="0.24" rx="0.24" y="14" x="49.5">
    <animate repeatCount="indefinite" begin="-1.3157894736842106s" dur="2.6315789473684212s" keyTimes="0;1" values="1;0" attributeName="opacity"></animate>
  </rect>
</g><g transform="rotate(180 50 50)">
  <rect fill="#066813" height="6" width="1" ry="0.24" rx="0.24" y="14" x="49.5">
    <animate repeatCount="indefinite" begin="-1.2335526315789473s" dur="2.6315789473684212s" keyTimes="0;1" values="1;0" attributeName="opacity"></animate>
  </rect>
</g><g transform="rotate(191.25 50 50)">
  <rect fill="#066813" height="6" width="1" ry="0.24" rx="0.24" y="14" x="49.5">
    <animate repeatCount="indefinite" begin="-1.1513157894736843s" dur="2.6315789473684212s" keyTimes="0;1" values="1;0" attributeName="opacity"></animate>
  </rect>
</g><g transform="rotate(202.5 50 50)">
  <rect fill="#066813" height="6" width="1" ry="0.24" rx="0.24" y="14" x="49.5">
    <animate repeatCount="indefinite" begin="-1.069078947368421s" dur="2.6315789473684212s" keyTimes="0;1" values="1;0" attributeName="opacity"></animate>
  </rect>
</g><g transform="rotate(213.75 50 50)">
  <rect fill="#066813" height="6" width="1" ry="0.24" rx="0.24" y="14" x="49.5">
    <animate repeatCount="indefinite" begin="-0.9868421052631579s" dur="2.6315789473684212s" keyTimes="0;1" values="1;0" attributeName="opacity"></animate>
  </rect>
</g><g transform="rotate(225 50 50)">
  <rect fill="#066813" height="6" width="1" ry="0.24" rx="0.24" y="14" x="49.5">
    <animate repeatCount="indefinite" begin="-0.9046052631578947s" dur="2.6315789473684212s" keyTimes="0;1" values="1;0" attributeName="opacity"></animate>
  </rect>
</g><g transform="rotate(236.25 50 50)">
  <rect fill="#066813" height="6" width="1" ry="0.24" rx="0.24" y="14" x="49.5">
    <animate repeatCount="indefinite" begin="-0.8223684210526315s" dur="2.6315789473684212s" keyTimes="0;1" values="1;0" attributeName="opacity"></animate>
  </rect>
</g><g transform="rotate(247.5 50 50)">
  <rect fill="#066813" height="6" width="1" ry="0.24" rx="0.24" y="14" x="49.5">
    <animate repeatCount="indefinite" begin="-0.7401315789473684s" dur="2.6315789473684212s" keyTimes="0;1" values="1;0" attributeName="opacity"></animate>
  </rect>
</g><g transform="rotate(258.75 50 50)">
  <rect fill="#066813" height="6" width="1" ry="0.24" rx="0.24" y="14" x="49.5">
    <animate repeatCount="indefinite" begin="-0.6578947368421053s" dur="2.6315789473684212s" keyTimes="0;1" values="1;0" attributeName="opacity"></animate>
  </rect>
</g><g transform="rotate(270 50 50)">
  <rect fill="#066813" height="6" width="1" ry="0.24" rx="0.24" y="14" x="49.5">
    <animate repeatCount="indefinite" begin="-0.5756578947368421s" dur="2.6315789473684212s" keyTimes="0;1" values="1;0" attributeName="opacity"></animate>
  </rect>
</g><g transform="rotate(281.25 50 50)">
  <rect fill="#066813" height="6" width="1" ry="0.24" rx="0.24" y="14" x="49.5">
    <animate repeatCount="indefinite" begin="-0.4934210526315789s" dur="2.6315789473684212s" keyTimes="0;1" values="1;0" attributeName="opacity"></animate>
  </rect>
</g><g transform="rotate(292.5 50 50)">
  <rect fill="#066813" height="6" width="1" ry="0.24" rx="0.24" y="14" x="49.5">
    <animate repeatCount="indefinite" begin="-0.41118421052631576s" dur="2.6315789473684212s" keyTimes="0;1" values="1;0" attributeName="opacity"></animate>
  </rect>
</g><g transform="rotate(303.75 50 50)">
  <rect fill="#066813" height="6" width="1" ry="0.24" rx="0.24" y="14" x="49.5">
    <animate repeatCount="indefinite" begin="-0.32894736842105265s" dur="2.6315789473684212s" keyTimes="0;1" values="1;0" attributeName="opacity"></animate>
  </rect>
</g><g transform="rotate(315 50 50)">
  <rect fill="#066813" height="6" width="1" ry="0.24" rx="0.24" y="14" x="49.5">
    <animate repeatCount="indefinite" begin="-0.24671052631578946s" dur="2.6315789473684212s" keyTimes="0;1" values="1;0" attributeName="opacity"></animate>
  </rect>
</g><g transform="rotate(326.25 50 50)">
  <rect fill="#066813" height="6" width="1" ry="0.24" rx="0.24" y="14" x="49.5">
    <animate repeatCount="indefinite" begin="-0.16447368421052633s" dur="2.6315789473684212s" keyTimes="0;1" values="1;0" attributeName="opacity"></animate>
  </rect>
</g><g transform="rotate(337.5 50 50)">
  <rect fill="#066813" height="6" width="1" ry="0.24" rx="0.24" y="14" x="49.5">
    <animate repeatCount="indefinite" begin="-0.08223684210526316s" dur="2.6315789473684212s" keyTimes="0;1" values="1;0" attributeName="opacity"></animate>
  </rect>
</g><g transform="rotate(348.75 50 50)">
  <rect fill="#066813" height="6" width="1" ry="0.24" rx="0.24" y="14" x="49.5">
    <animate repeatCount="indefinite" begin="0s" dur="2.6315789473684212s" keyTimes="0;1" values="1;0" attributeName="opacity"></animate>
  </rect>
</g><g></g></g><!-- [ldio] generated by https://loading.io --></svg>